<?xml version="1.0" encoding="utf-8"?>
<!-- Generator: Adobe Illustrator 23.0.5, SVG Export Plug-In . SVG Version: 6.00 Build 0)  -->
<svg version="1.1" id="Layer_1" xmlns="http://www.w3.org/2000/svg" xmlns:xlink="http://www.w3.org/1999/xlink" x="0px" y="0px"
	 viewBox="0 0 72.6 49.97" style="enable-background:new 0 0 72.6 49.97;" xml:space="preserve">
<style type="text/css">
	.st0{fill:url(#SVGID_1_);}
	.st1{fill:url(#SVGID_2_);}
	.st2{fill:url(#SVGID_3_);}
</style>
<g>
	
		<linearGradient id="SVGID_1_" gradientUnits="userSpaceOnUse" x1="-25.0846" y1="23.5649" x2="21.2735" y2="23.5649" gradientTransform="matrix(0.9093 -0.4043 0.4132 0.9053 32.6248 5.1016)">
		<stop  offset="0" style="stop-color:#004FA1"/>
		<stop  offset="1" style="stop-color:#040343"/>
	</linearGradient>
	<path class="st0" d="M38.85,12.73L25.16,48.86l0.72,0.27c6.62,2.51,14.02-0.83,16.53-7.45L56.1,5.55l-0.72-0.27
		C48.76,2.77,41.36,6.1,38.85,12.73z"/>
	<g>
		
			<linearGradient id="SVGID_2_" gradientUnits="userSpaceOnUse" x1="-29.1238" y1="34.5025" x2="-1.7741" y2="26.1408" gradientTransform="matrix(0.9118 -0.4107 0.4107 0.9118 19.1984 -8.3907)">
			<stop  offset="0" style="stop-color:#050B54"/>
			<stop  offset="0.0792" style="stop-color:#071E65"/>
			<stop  offset="0.4498" style="stop-color:#0E74B0"/>
			<stop  offset="0.7113" style="stop-color:#13A9E0"/>
			<stop  offset="0.838" style="stop-color:#15BEF2"/>
		</linearGradient>
		<path class="st1" d="M17.86,18.02L0,26.06l0.32,0.7c2.91,6.46,10.5,9.33,16.96,6.42l17.86-8.05l-0.32-0.7
			C31.91,17.98,24.32,15.11,17.86,18.02z"/>
		
			<linearGradient id="SVGID_3_" gradientUnits="userSpaceOnUse" x1="-9.8704" y1="36.8614" x2="38.9427" y2="23.7819" gradientTransform="matrix(0.9118 -0.4107 0.4107 0.9118 19.1984 -8.3907)">
			<stop  offset="0" style="stop-color:#04206C"/>
			<stop  offset="0.1634" style="stop-color:#094489"/>
			<stop  offset="0.4486" style="stop-color:#117DB7"/>
			<stop  offset="0.6934" style="stop-color:#16A7D8"/>
			<stop  offset="0.8851" style="stop-color:#1AC1EC"/>
			<stop  offset="1" style="stop-color:#1BCAF4"/>
		</linearGradient>
		<path class="st2" d="M55.33,1.13L17.21,18.31l0.32,0.7c2.91,6.46,10.5,9.33,16.96,6.42L72.6,8.26l-0.32-0.7
			C69.38,1.1,61.79-1.77,55.33,1.13z"/>
	</g>
</g>
</svg>
